<svg width="210" height="210" viewBox="0 0 210 210" fill="none" xmlns="http://www.w3.org/2000/svg">
<g filter="url(#filter0_d_36_699)">
<rect x="102.539" y="21.875" width="4.92188" height="17.5" rx="2.46094" fill="url(#paint0_linear_36_699)"/>
</g>
<g filter="url(#filter1_d_36_699)">
<rect x="161.951" y="44.5703" width="4.92187" height="17.5" rx="2.46094" transform="rotate(45 161.951 44.5703)" fill="url(#paint1_linear_36_699)"/>
</g>
<g filter="url(#filter2_d_36_699)">
<rect x="188.125" y="102.539" width="4.92188" height="17.5" rx="2.46094" transform="rotate(90 188.125 102.539)" fill="url(#paint2_linear_36_699)"/>
</g>
<g filter="url(#filter3_d_36_699)">
<rect x="165.43" y="161.941" width="4.92187" height="17.5" rx="2.46094" transform="rotate(135 165.43 161.941)" fill="url(#paint3_linear_36_699)"/>
</g>
<g filter="url(#filter4_d_36_699)">
<rect x="48.0486" y="165.419" width="4.92187" height="17.5" rx="2.46094" transform="rotate(-135 48.0486 165.419)" fill="url(#paint4_linear_36_699)"/>
</g>
<g filter="url(#filter5_d_36_699)">
<rect x="39.375" y="102.539" width="4.92188" height="17.5" rx="2.46094" transform="rotate(90 39.375 102.539)" fill="url(#paint5_linear_36_699)"/>
</g>
<g filter="url(#filter6_d_36_699)">
<rect x="44.5704" y="48.0485" width="4.92187" height="17.5" rx="2.46094" transform="rotate(-45 44.5704 48.0485)" fill="url(#paint6_linear_36_699)"/>
</g>
<g filter="url(#filter7_di_36_699)">
<rect x="45.9375" y="45.9375" width="118.125" height="118.125" rx="59.0625" fill="url(#paint7_radial_36_699)" shape-rendering="crispEdges"/>
<path fill-rule="evenodd" clip-rule="evenodd" d="M94.1745 124.003C93.7882 125.715 94.0979 127.511 95.0354 128.995C95.9729 130.478 97.4614 131.529 99.1734 131.915C100.886 132.301 102.681 131.992 104.165 131.054C105.648 130.117 106.699 128.628 107.085 126.916L113.541 128.373C112.768 131.797 110.667 134.774 107.699 136.649C104.732 138.524 101.141 139.143 97.717 138.371C94.2928 137.598 91.3158 135.497 89.4409 132.529C87.5659 129.562 86.9466 125.971 87.7191 122.547L94.1745 124.003Z" fill="url(#paint8_linear_36_699)"/>
<path d="M119.601 81.1669C119.095 83.4101 115.065 80.2858 111.502 79.4819C107.938 78.6779 102.957 79.769 103.464 77.5225C103.97 75.2793 107.914 72.8314 112.756 73.9238C117.597 75.0161 120.108 78.9204 119.601 81.1669Z" fill="url(#paint9_linear_36_699)"/>
<path fill-rule="evenodd" clip-rule="evenodd" d="M105.127 83.1248C103 83.2148 100.937 83.6413 99.3675 84.522C95.0828 86.9303 92.6519 90.9543 90.8823 98.7976C89.621 104.388 85.2442 108.963 82.1792 111.874C81.5132 112.511 81.1973 113.189 81.1295 113.625C81.0987 113.822 81.1235 113.922 81.1356 113.959C81.1434 113.984 81.1683 114.054 81.3043 114.173C83.2684 115.871 86.4415 117.503 90.2128 118.934C93.8492 120.283 97.5726 121.385 101.358 122.232C102.214 122.425 102.958 122.95 103.427 123.692C103.895 124.434 104.05 125.332 103.857 126.188C103.664 127.044 103.139 127.788 102.397 128.257C101.655 128.726 100.757 128.881 99.9012 128.687C96.2604 127.866 91.931 126.669 87.8632 125.123C83.8586 123.599 79.8206 121.637 76.976 119.18C74.8841 117.372 74.2346 114.898 74.5919 112.608C74.9234 110.447 76.1172 108.509 77.6199 107.08C80.7162 104.136 83.6513 100.779 84.4269 97.3411C86.3647 88.7522 89.4427 82.5067 96.127 78.7538C98.9433 77.1708 102.155 76.6303 104.838 76.513C107.09 76.4034 109.346 76.582 111.553 77.0443C112.409 77.2375 113.153 77.7628 113.622 78.5046C114.091 79.2465 114.245 80.1442 114.052 81.0003C113.859 81.8563 113.334 82.6005 112.592 83.0693C111.85 83.538 110.952 83.6929 110.096 83.4997C109.109 83.2769 107.231 83.0296 105.127 83.1248Z" fill="url(#paint10_linear_36_699)"/>
<path fill-rule="evenodd" clip-rule="evenodd" d="M114.746 85.295C116.628 86.2895 118.308 87.5607 119.347 89.0298C122.183 93.0446 122.651 97.7225 120.881 105.566C119.62 111.156 121.608 117.168 123.126 121.112C123.454 121.973 123.448 122.722 123.322 123.144C123.299 123.255 123.248 123.358 123.174 123.443C123.156 123.463 123.103 123.516 122.929 123.565C120.426 124.255 116.86 124.366 112.839 124.039C108.976 123.696 105.14 123.093 101.358 122.232C100.502 122.039 99.6044 122.194 98.8625 122.663C98.1206 123.131 97.5954 123.876 97.4022 124.732C97.2091 125.588 97.3639 126.485 97.8327 127.227C98.3014 127.969 99.0457 128.494 99.9017 128.688C103.543 129.509 107.963 130.286 112.304 130.638C116.575 130.981 121.064 130.942 124.688 129.945C127.354 129.21 129.003 127.255 129.663 125.033C130.292 122.939 130.046 120.676 129.302 118.741C127.77 114.752 126.561 110.46 127.336 107.022C129.274 98.4334 129.176 91.4712 124.751 85.2118C122.887 82.5729 120.218 80.7056 117.846 79.4479C115.859 78.3821 113.745 77.5744 111.553 77.0445C110.697 76.8513 109.8 77.0062 109.058 77.4749C108.316 77.9437 107.79 78.6879 107.597 79.544C107.404 80.4 107.559 81.2977 108.028 82.0396C108.497 82.7814 109.241 83.3067 110.097 83.4999C111.084 83.7227 112.886 84.3056 114.746 85.295Z" fill="url(#paint11_linear_36_699)"/>
<g filter="url(#filter8_d_36_699)">
<rect x="112.059" y="70.5883" width="26.25" height="26.25" rx="13.125" fill="#E83C3C" shape-rendering="crispEdges"/>
<rect x="112.606" y="71.1352" width="25.1562" height="25.1562" rx="12.5781" stroke="#202024" stroke-width="1.09375" shape-rendering="crispEdges"/>
<path d="M127.042 77.5521V87.893H124.856V79.6273H124.796L122.427 81.1118V79.1729L124.987 77.5521H127.042Z" fill="white"/>
</g>
</g>
<defs>
<filter id="filter0_d_36_699" x="93.7891" y="13.125" width="22.4219" height="35" filterUnits="userSpaceOnUse" color-interpolation-filters="sRGB">
<feFlood flood-opacity="0" result="BackgroundImageFix"/>
<feColorMatrix in="SourceAlpha" type="matrix" values="0 0 0 0 0 0 0 0 0 0 0 0 0 0 0 0 0 0 127 0" result="hardAlpha"/>
<feOffset/>
<feGaussianBlur stdDeviation="4.375"/>
<feComposite in2="hardAlpha" operator="out"/>
<feColorMatrix type="matrix" values="0 0 0 0 0.941176 0 0 0 0 0.764706 0 0 0 0 0.392157 0 0 0 0.5 0"/>
<feBlend mode="normal" in2="BackgroundImageFix" result="effect1_dropShadow_36_699"/>
<feBlend mode="normal" in="SourceGraphic" in2="effect1_dropShadow_36_699" result="shape"/>
</filter>
<filter id="filter1_d_36_699" x="141.846" y="36.8397" width="31.316" height="31.316" filterUnits="userSpaceOnUse" color-interpolation-filters="sRGB">
<feFlood flood-opacity="0" result="BackgroundImageFix"/>
<feColorMatrix in="SourceAlpha" type="matrix" values="0 0 0 0 0 0 0 0 0 0 0 0 0 0 0 0 0 0 127 0" result="hardAlpha"/>
<feOffset/>
<feGaussianBlur stdDeviation="4.375"/>
<feComposite in2="hardAlpha" operator="out"/>
<feColorMatrix type="matrix" values="0 0 0 0 0.941176 0 0 0 0 0.764706 0 0 0 0 0.392157 0 0 0 0.5 0"/>
<feBlend mode="normal" in2="BackgroundImageFix" result="effect1_dropShadow_36_699"/>
<feBlend mode="normal" in="SourceGraphic" in2="effect1_dropShadow_36_699" result="shape"/>
</filter>
<filter id="filter2_d_36_699" x="161.875" y="93.7891" width="35" height="22.4219" filterUnits="userSpaceOnUse" color-interpolation-filters="sRGB">
<feFlood flood-opacity="0" result="BackgroundImageFix"/>
<feColorMatrix in="SourceAlpha" type="matrix" values="0 0 0 0 0 0 0 0 0 0 0 0 0 0 0 0 0 0 127 0" result="hardAlpha"/>
<feOffset/>
<feGaussianBlur stdDeviation="4.375"/>
<feComposite in2="hardAlpha" operator="out"/>
<feColorMatrix type="matrix" values="0 0 0 0 0.941176 0 0 0 0 0.764706 0 0 0 0 0.392157 0 0 0 0.5 0"/>
<feBlend mode="normal" in2="BackgroundImageFix" result="effect1_dropShadow_36_699"/>
<feBlend mode="normal" in="SourceGraphic" in2="effect1_dropShadow_36_699" result="shape"/>
</filter>
<filter id="filter3_d_36_699" x="141.844" y="141.836" width="31.316" height="31.3159" filterUnits="userSpaceOnUse" color-interpolation-filters="sRGB">
<feFlood flood-opacity="0" result="BackgroundImageFix"/>
<feColorMatrix in="SourceAlpha" type="matrix" values="0 0 0 0 0 0 0 0 0 0 0 0 0 0 0 0 0 0 127 0" result="hardAlpha"/>
<feOffset/>
<feGaussianBlur stdDeviation="4.375"/>
<feComposite in2="hardAlpha" operator="out"/>
<feColorMatrix type="matrix" values="0 0 0 0 0.941176 0 0 0 0 0.764706 0 0 0 0 0.392157 0 0 0 0.5 0"/>
<feBlend mode="normal" in2="BackgroundImageFix" result="effect1_dropShadow_36_699"/>
<feBlend mode="normal" in="SourceGraphic" in2="effect1_dropShadow_36_699" result="shape"/>
</filter>
<filter id="filter4_d_36_699" x="36.8376" y="141.833" width="31.316" height="31.316" filterUnits="userSpaceOnUse" color-interpolation-filters="sRGB">
<feFlood flood-opacity="0" result="BackgroundImageFix"/>
<feColorMatrix in="SourceAlpha" type="matrix" values="0 0 0 0 0 0 0 0 0 0 0 0 0 0 0 0 0 0 127 0" result="hardAlpha"/>
<feOffset/>
<feGaussianBlur stdDeviation="4.375"/>
<feComposite in2="hardAlpha" operator="out"/>
<feColorMatrix type="matrix" values="0 0 0 0 0.941176 0 0 0 0 0.764706 0 0 0 0 0.392157 0 0 0 0.5 0"/>
<feBlend mode="normal" in2="BackgroundImageFix" result="effect1_dropShadow_36_699"/>
<feBlend mode="normal" in="SourceGraphic" in2="effect1_dropShadow_36_699" result="shape"/>
</filter>
<filter id="filter5_d_36_699" x="13.125" y="93.7891" width="35" height="22.4219" filterUnits="userSpaceOnUse" color-interpolation-filters="sRGB">
<feFlood flood-opacity="0" result="BackgroundImageFix"/>
<feColorMatrix in="SourceAlpha" type="matrix" values="0 0 0 0 0 0 0 0 0 0 0 0 0 0 0 0 0 0 127 0" result="hardAlpha"/>
<feOffset/>
<feGaussianBlur stdDeviation="4.375"/>
<feComposite in2="hardAlpha" operator="out"/>
<feColorMatrix type="matrix" values="0 0 0 0 0.941176 0 0 0 0 0.764706 0 0 0 0 0.392157 0 0 0 0.5 0"/>
<feBlend mode="normal" in2="BackgroundImageFix" result="effect1_dropShadow_36_699"/>
<feBlend mode="normal" in="SourceGraphic" in2="effect1_dropShadow_36_699" result="shape"/>
</filter>
<filter id="filter6_d_36_699" x="36.8398" y="36.8376" width="31.316" height="31.316" filterUnits="userSpaceOnUse" color-interpolation-filters="sRGB">
<feFlood flood-opacity="0" result="BackgroundImageFix"/>
<feColorMatrix in="SourceAlpha" type="matrix" values="0 0 0 0 0 0 0 0 0 0 0 0 0 0 0 0 0 0 127 0" result="hardAlpha"/>
<feOffset/>
<feGaussianBlur stdDeviation="4.375"/>
<feComposite in2="hardAlpha" operator="out"/>
<feColorMatrix type="matrix" values="0 0 0 0 0.941176 0 0 0 0 0.764706 0 0 0 0 0.392157 0 0 0 0.5 0"/>
<feBlend mode="normal" in2="BackgroundImageFix" result="effect1_dropShadow_36_699"/>
<feBlend mode="normal" in="SourceGraphic" in2="effect1_dropShadow_36_699" result="shape"/>
</filter>
<filter id="filter7_di_36_699" x="13.125" y="24.0625" width="183.75" height="183.75" filterUnits="userSpaceOnUse" color-interpolation-filters="sRGB">
<feFlood flood-opacity="0" result="BackgroundImageFix"/>
<feColorMatrix in="SourceAlpha" type="matrix" values="0 0 0 0 0 0 0 0 0 0 0 0 0 0 0 0 0 0 127 0" result="hardAlpha"/>
<feOffset dy="10.9375"/>
<feGaussianBlur stdDeviation="16.4062"/>
<feComposite in2="hardAlpha" operator="out"/>
<feColorMatrix type="matrix" values="0 0 0 0 0 0 0 0 0 0 0 0 0 0 0 0 0 0 0.8 0"/>
<feBlend mode="normal" in2="BackgroundImageFix" result="effect1_dropShadow_36_699"/>
<feBlend mode="normal" in="SourceGraphic" in2="effect1_dropShadow_36_699" result="shape"/>
<feColorMatrix in="SourceAlpha" type="matrix" values="0 0 0 0 0 0 0 0 0 0 0 0 0 0 0 0 0 0 127 0" result="hardAlpha"/>
<feOffset dy="1.09375"/>
<feGaussianBlur stdDeviation="0.546875"/>
<feComposite in2="hardAlpha" operator="arithmetic" k2="-1" k3="1"/>
<feColorMatrix type="matrix" values="0 0 0 0 1 0 0 0 0 1 0 0 0 0 1 0 0 0 0.08 0"/>
<feBlend mode="normal" in2="shape" result="effect2_innerShadow_36_699"/>
</filter>
<filter id="filter8_d_36_699" x="109.871" y="69.4945" width="30.625" height="30.625" filterUnits="userSpaceOnUse" color-interpolation-filters="sRGB">
<feFlood flood-opacity="0" result="BackgroundImageFix"/>
<feColorMatrix in="SourceAlpha" type="matrix" values="0 0 0 0 0 0 0 0 0 0 0 0 0 0 0 0 0 0 127 0" result="hardAlpha"/>
<feOffset dy="1.09375"/>
<feGaussianBlur stdDeviation="1.09375"/>
<feComposite in2="hardAlpha" operator="out"/>
<feColorMatrix type="matrix" values="0 0 0 0 0 0 0 0 0 0 0 0 0 0 0 0 0 0 0.05 0"/>
<feBlend mode="normal" in2="BackgroundImageFix" result="effect1_dropShadow_36_699"/>
<feBlend mode="normal" in="SourceGraphic" in2="effect1_dropShadow_36_699" result="shape"/>
</filter>
<linearGradient id="paint0_linear_36_699" x1="105" y1="21.875" x2="105" y2="39.375" gradientUnits="userSpaceOnUse">
<stop stop-color="#F7D487"/>
<stop offset="1" stop-color="#CCA148"/>
</linearGradient>
<linearGradient id="paint1_linear_36_699" x1="164.412" y1="44.5703" x2="164.412" y2="62.0703" gradientUnits="userSpaceOnUse">
<stop stop-color="#F7D487"/>
<stop offset="1" stop-color="#CCA148"/>
</linearGradient>
<linearGradient id="paint2_linear_36_699" x1="190.586" y1="102.539" x2="190.586" y2="120.039" gradientUnits="userSpaceOnUse">
<stop stop-color="#F7D487"/>
<stop offset="1" stop-color="#CCA148"/>
</linearGradient>
<linearGradient id="paint3_linear_36_699" x1="167.891" y1="161.941" x2="167.891" y2="179.441" gradientUnits="userSpaceOnUse">
<stop stop-color="#F7D487"/>
<stop offset="1" stop-color="#CCA148"/>
</linearGradient>
<linearGradient id="paint4_linear_36_699" x1="50.5095" y1="165.419" x2="50.5095" y2="182.919" gradientUnits="userSpaceOnUse">
<stop stop-color="#F7D487"/>
<stop offset="1" stop-color="#CCA148"/>
</linearGradient>
<linearGradient id="paint5_linear_36_699" x1="41.8359" y1="102.539" x2="41.8359" y2="120.039" gradientUnits="userSpaceOnUse">
<stop stop-color="#F7D487"/>
<stop offset="1" stop-color="#CCA148"/>
</linearGradient>
<linearGradient id="paint6_linear_36_699" x1="47.0314" y1="48.0485" x2="47.0314" y2="65.5485" gradientUnits="userSpaceOnUse">
<stop stop-color="#F7D487"/>
<stop offset="1" stop-color="#CCA148"/>
</linearGradient>
<radialGradient id="paint7_radial_36_699" cx="0" cy="0" r="1" gradientUnits="userSpaceOnUse" gradientTransform="translate(93.1875 87.2812) scale(104.492)">
<stop stop-color="#222226"/>
<stop offset="1" stop-color="#131315"/>
</radialGradient>
<linearGradient id="paint8_linear_36_699" x1="87.908" y1="122.59" x2="93.686" y2="152.673" gradientUnits="userSpaceOnUse">
<stop stop-color="#FCE19B"/>
<stop offset="0.5" stop-color="#E2A645"/>
<stop offset="1" stop-color="#B87B22"/>
</linearGradient>
<linearGradient id="paint9_linear_36_699" x1="104.804" y1="72.1299" x2="106.602" y2="87.8065" gradientUnits="userSpaceOnUse">
<stop stop-color="#FCE19B"/>
<stop offset="0.5" stop-color="#E2A645"/>
<stop offset="1" stop-color="#B87B22"/>
</linearGradient>
<linearGradient id="paint10_linear_36_699" x1="84.2232" y1="70.8783" x2="135.602" y2="126.037" gradientUnits="userSpaceOnUse">
<stop stop-color="#FCE19B"/>
<stop offset="0.5" stop-color="#E2A645"/>
<stop offset="1" stop-color="#B87B22"/>
</linearGradient>
<linearGradient id="paint11_linear_36_699" x1="108.551" y1="76.3671" x2="159.929" y2="131.526" gradientUnits="userSpaceOnUse">
<stop stop-color="#FCE19B"/>
<stop offset="0.5" stop-color="#E2A645"/>
<stop offset="1" stop-color="#B87B22"/>
</linearGradient>
</defs>
</svg>
